<?xml version="1.0"?>
<svg version="1.1" xmlns="http://www.w3.org/2000/svg" width="217px" height="29px"  style=""><path fill="#" d="M19.2,109.38l0.56,2.94s1.26,0.7,3.08,0.7c2.044,0,4.284-1.008,4.284-2.996c0-4.312-10.108-2.52-10.108-9.212c0-3.92,3.136-5.572,6.636-5.572c2.66,0,5.908,1.12,5.908,1.12l-0.14,4.76l-1.82,0l-0.952-2.996s-1.428-0.504-2.968-0.504c-2.52,0-3.724,1.316-3.724,2.716c0,4.256,10.08,2.632,10.08,8.932c0,4.2-3.388,6.132-7.308,6.132c-2.94,0-5.768-1.12-5.768-1.12l0-4.9l2.24,0z M44.4168,95.24c5.46,0,8.68,3.78,8.68,9.8c0,6.16-3.78,10.36-9.24,10.36s-8.54-3.5-8.54-9.94c0-6.16,3.5-10.22,9.1-10.22z M44.2768,97.62c-3.64,0-5.74,2.38-5.74,7.7c0,5.04,1.82,7.7,5.46,7.7s5.88-2.52,5.88-7.84c0-5.04-1.96-7.56-5.6-7.56z M68.7376,112.88l0.56-3.22l1.96,0l0,5.46l-13.58,0l0-1.68l2.38-0.56l0-15.12l-2.38-0.56l0-1.54l7.7-0.14l0,1.68l-2.38,0.56l0,15.12l5.74,0z M74.7184,115.12l0-1.68l2.38-0.56l0-15.12l-2.38-0.56l0-1.54l7.7-0.14l0,1.68l-2.38,0.56l0,15.12l2.38,0.56l0,1.68l-7.7,0z M89.2392,112.88l0-15.12l-2.38-0.56l0-1.54l5.32-0.14l3.5,0c5.46,0,8.82,3.36,8.82,9.52s-3.64,10.08-9.24,10.08l-8.4,0l0-1.68z M92.1792,112.88l3.22,0c3.5,0,5.88-2.38,5.88-7.7c0-5.18-2.24-7.42-5.74-7.42l-3.36,0l0,15.12z"/><path fill="#358dcc" d="M119.68,103.78l6.44,0l0,2.24l-6.44,0l0,6.86l6.44,0l0.56-2.8l1.82,0l0,5.04l-14.14,0l0-1.68l2.38-0.56l0-15.12l-2.38-0.56l0-1.54l5.32-0.14l8.54,0l0,4.76l-1.82,0l-0.7-2.52l-6.02,0l0,6.02z M134.2008,113.02l5.88-7.84l-5.18-7.42l-2.1-0.56l0-1.54l7.42-0.14l0,1.68l-1.82,0.56l3.64,5.32l3.64-5.32l-1.96-0.56l0-1.54l7.42-0.14l0,1.68l-2.52,0.56l-5.04,7.28l5.46,7.84l2.38,0.56l0,1.68l-7.56,0l0-1.68l1.68-0.42l-3.92-5.74l-4.2,5.6l2.38,0.56l0,1.68l-7.42,0l0-1.68z M157.1216,112.88l0-15.12l-2.38-0.56l0-1.54l5.32-0.14l2.94,0c4.2,0,6.44,2.24,6.44,5.74c0,4.34-2.8,6.58-7.56,6.58l-1.82,0l0,5.04l2.38,0.56l0,1.68l-7.7,0l0-1.68z M160.0616,105.6l1.82,0c3.08,0,4.62-1.4,4.62-3.92c0-2.24-1.26-3.92-3.64-3.92l-2.8,0l0,7.84z M178.7824,103.78l6.44,0l0,2.24l-6.44,0l0,6.86l6.44,0l0.56-2.8l1.82,0l0,5.04l-14.14,0l0-1.68l2.38-0.56l0-15.12l-2.38-0.56l0-1.54l5.32-0.14l8.54,0l0,4.76l-1.82,0l-0.7-2.52l-6.02,0l0,6.02z M194.7032,112.88l0-15.12l-2.38-0.56l0-1.54l5.32-0.14l3.08,0c3.948,0,6.3,1.904,6.3,5.04c0,2.716-1.232,4.564-3.64,5.46c0.448,0.392,0.952,1.12,1.68,2.52l2.212,4.452l1.988,0.448l0,1.68l-4.2,0l-2.38-5.18c-1.316-2.8-1.932-3.36-3.78-3.36l-1.26,0l0,6.3l2.38,0.56l0,1.68l-7.7,0l0-1.68z M197.6432,104.48l2.1,0c2.744,0,4.34-1.288,4.34-3.5c0-1.876-1.456-3.22-3.5-3.22l-2.94,0l0,6.72z M214.964,115.12l0-1.68l2.8-0.56l0-15.12l-3.64,0l-0.7,2.8l-1.82,0l0-5.04l15.26,0l0,5.04l-1.82,0l-0.7-2.8l-3.64,0l0,15.12l2.8,0.56l0,1.68l-8.54,0z M233.2648,109.38l0.56,2.94s1.26,0.7,3.08,0.7c2.044,0,4.284-1.008,4.284-2.996c0-4.312-10.108-2.52-10.108-9.212c0-3.92,3.136-5.572,6.636-5.572c2.66,0,5.908,1.12,5.908,1.12l-0.14,4.76l-1.82,0l-0.952-2.996s-1.428-0.504-2.968-0.504c-2.52,0-3.724,1.316-3.724,2.716c0,4.256,10.08,2.632,10.08,8.932c0,4.2-3.388,6.132-7.308,6.132c-2.94,0-5.768-1.12-5.768-1.12l0-4.9l2.24,0z"/></svg>
